<svg id="Capa_1" enable-background="new 0 0 511.952 511.952" height="512" viewBox="0 0 511.952 511.952" width="512" xmlns="http://www.w3.org/2000/svg"><g><g><path d="m499.517 82.052c-1.895-2.081-4.578-3.266-7.393-3.266h-153.145c-5.522 0-10 4.477-10 10s4.478 10 10 10h141.411c-1.476 7.187-4.074 17.154-8.466 27.521h-356.974c-1.317-3.131-2.499-6.276-3.546-9.388l18.004-18.133h121.57c5.522 0 10-4.477 10-10s-4.478-10-10-10h-101.711l34.746-34.994c3.836-3.862 3.811-10.315-.056-14.147-25.856-25.634-63.725-35.632-98.823-26.093-26.344 7.157-48.324 24.147-61.893 47.839-17.694 30.899-17.892 69.554-.537 100.653 4.642 8.318 10.451 15.984 17.22 22.688 3.864 3.827 10.3 3.802 14.133-.059l41.829-42.127c12.778 31.359 37.349 56.947 72.284 60.714 1.416 22.02 9.658 44.12 26.381 59.059 16.257 14.522 38.101 19.862 59.478 19.897 23.136 1.477 29.419 30.33 29.419 48.771v125.393h-26.468c-30.643 0-55.571 24.929-55.571 55.572 0 5.523 4.478 10 10 10h164.079c5.522 0 10-4.477 10-10 0-30.643-24.93-55.572-55.572-55.572h-26.468v-125.391c0-10.981 1.401-22.637 6.802-32.402 2.143-3.875 4.934-7.418 8.398-10.197 6.877-5.518 13.628-5.918 22.021-6.37 21.51-1.16 42.953-8.471 57.61-24.873 13.133-14.697 19.525-34.445 20.557-53.897 50.564-5.518 78.891-56.994 83.246-103.533.261-2.802-.67-5.585-2.565-7.665zm-387.705-62.056c18.154 0 36.012 6.016 50.523 17.242l-45.292 45.613-16.851-62.018c3.868-.554 7.75-.837 11.62-.837zm-71.215 41.334c9.239-16.131 23.336-28.377 40.294-35.255l16.853 62.022-62.148-16.421c1.419-3.529 3.078-6.987 5.001-10.346zm6.74 91.726c-13.686-17.386-19.889-40.125-16.877-62.052l62.177 16.429zm316.72 338.896h-141.218c4.331-14.762 17.997-25.572 34.141-25.572h72.936c16.143 0 29.81 10.81 34.141 25.572zm96.872-345.646c-12.338 17.196-30.729 27.477-52.09 27.477-5.767 0-10.423 5.074-9.966 10.827 1.278 15.606-3.311 33.412-12.739 45.883-12.527 16.573-32.897 21.405-52.693 21.724-16.458.296-31.837 11.578-39.901 25.371-7.804-13.567-22.99-25.372-39.288-25.372-19.708 0-40.048-5.408-52.657-21.527-9.759-12.475-14.6-30.358-13.566-46.172.389-5.28-3.675-10.133-8.938-10.681-22.355-2.328-39.418-8.313-53.126-27.531h334.964z"/><path d="m267.082 232.592c17.072 0 30.962-13.89 30.962-30.962s-13.89-30.962-30.962-30.962-30.962 13.89-30.962 30.962 13.89 30.962 30.962 30.962zm0-41.924c6.044 0 10.962 4.917 10.962 10.962s-4.918 10.962-10.962 10.962-10.962-4.917-10.962-10.962 4.918-10.962 10.962-10.962z"/><path d="m330.093 179.422c3.388 8.133 15.38 8.028 18.558-.23 1.526-3.966.33-8.629-2.974-11.327-3.237-2.643-7.895-2.985-11.481-.843-4.215 2.517-5.96 7.871-4.103 12.4z"/><path d="m286.853 92.612c2.093 5.025 8.022 7.501 13.061 5.41 5.033-2.089 7.495-8.025 5.41-13.06-2.083-5.031-8.027-7.5-13.061-5.41-5.045 2.094-7.479 8.013-5.41 13.06z"/></g></g></svg>